<?xml version="1.0" standalone="no"?>
<!DOCTYPE svg PUBLIC "-//W3C//DTD SVG 20010904//EN"
 "http://www.w3.org/TR/2001/REC-SVG-20010904/DTD/svg10.dtd">
<svg version="1.0" xmlns="http://www.w3.org/2000/svg"
 width="318.000000pt" height="318.000000pt" viewBox="0 0 318.000000 318.000000"
 preserveAspectRatio="xMidYMid meet">
<metadata>
Created by potrace 1.11, written by Peter Selinger 2001-2013
</metadata>
<g transform="translate(0.000000,318.000000) scale(0.100000,-0.100000)"
fill="#000000" stroke="none">
<path d="M1436 3059 c-528 -51 -1001 -401 -1207 -893 -35 -85 -89 -262 -89
-293 0 -8 13 -13 34 -13 30 0 33 2 28 25 -6 33 16 33 24 -1 6 -24 10 -26 54
-22 27 1 46 0 44 -4 -3 -4 2 -21 11 -38 18 -35 44 -38 119 -16 63 19 106 54
166 133 70 92 194 352 176 370 -5 6 -97 -88 -116 -119 -11 -18 -20 -48 -20
-66 0 -26 -5 -35 -26 -42 -14 -6 -30 -10 -35 -10 -17 0 -9 65 16 118 14 30 22
59 18 65 -3 6 -1 7 5 3 7 -4 26 23 51 72 l40 80 -39 -19 c-21 -10 -70 -29
-108 -40 l-70 -22 -37 -73 c-20 -39 -40 -93 -42 -118 -5 -43 -4 -46 18 -46 13
0 37 7 53 15 16 9 31 13 33 11 18 -18 -72 -65 -123 -66 -67 0 -68 40 -4 177
22 47 40 88 40 90 0 2 -28 1 -61 -3 -50 -6 -61 -4 -57 7 3 9 26 16 69 19 l64
5 48 70 c36 53 57 73 84 83 46 15 55 7 21 -21 -32 -27 -93 -117 -79 -117 14 0
97 28 154 52 41 18 52 30 84 87 172 315 265 421 371 421 37 0 44 -4 52 -26 12
-31 0 -83 -30 -132 -11 -18 -17 -39 -14 -45 4 -7 4 -9 -1 -5 -4 4 -47 -29 -94
-75 -47 -46 -129 -111 -181 -145 l-95 -63 -49 -97 c-44 -88 -46 -94 -19 -67
16 17 27 33 25 38 -2 4 0 6 5 5 4 -1 27 10 50 26 47 31 73 29 73 -7 0 -30 -96
-227 -155 -317 -89 -139 -189 -220 -295 -241 l-57 -11 80 -177 c43 -97 81
-178 83 -180 8 -9 187 423 187 454 0 6 36 8 96 5 76 -4 96 -8 96 -20 0 -10
-17 -18 -50 -25 l-50 -11 -3 -256 -2 -256 31 -11 c18 -6 43 -11 55 -11 15 0
24 -6 24 -15 0 -13 -23 -15 -145 -15 -117 0 -145 3 -145 14 0 8 18 18 43 25
l44 11 6 192 c3 106 3 206 0 221 -6 30 -12 17 -150 -326 -31 -76 -60 -136 -65
-135 -4 2 -37 75 -73 163 -35 88 -86 205 -113 260 l-49 99 -7 -181 c-4 -100
-4 -208 0 -241 7 -65 14 -72 82 -72 22 0 32 -5 32 -15 0 -12 -18 -15 -105 -15
-70 0 -105 -4 -105 -11 0 -6 14 -51 30 -101 161 -480 556 -843 1049 -962 498
-121 1024 27 1386 389 251 251 395 567 427 935 10 125 10 144 -6 197 -28 93
-38 101 -131 105 l-80 3 1 -37 c0 -21 1 -136 2 -257 l2 -218 52 -14 c29 -8 51
-18 50 -24 -1 -6 -62 -11 -151 -13 -136 -2 -151 -1 -160 16 -8 15 -5 18 17 20
15 1 41 6 57 10 28 8 30 12 38 73 4 35 5 80 3 99 -3 19 -6 104 -7 188 l-1 152
-73 0 -74 0 -47 -55 c-27 -31 -52 -51 -57 -46 -9 9 28 170 44 185 5 6 18 1 32
-12 22 -20 32 -21 241 -22 120 -1 221 1 224 5 9 9 -16 118 -49 218 -184 553
-677 942 -1264 997 -123 11 -151 11 -279 -1z m-347 -713 c10 -11 10 -20 0 -38
-22 -44 -51 -67 -100 -79 -54 -14 -63 -28 -57 -90 2 -28 7 -35 30 -37 38 -5
105 32 166 91 32 32 52 45 52 36 0 -19 -79 -95 -130 -126 -55 -33 -117 -47
-151 -32 -30 12 -34 22 -30 74 6 63 80 167 146 203 28 16 60 15 74 -2z m1119
-486 l42 -19 0 -60 c0 -33 -5 -63 -10 -66 -6 -3 -19 14 -30 39 -34 81 -121
110 -191 63 -19 -12 -38 -34 -43 -48 -16 -45 11 -78 104 -130 170 -95 210
-137 210 -223 0 -28 -7 -64 -15 -80 -8 -15 -12 -33 -8 -40 3 -6 3 -8 -2 -4 -4
4 -23 -5 -41 -21 -62 -55 -202 -63 -293 -18 -25 12 -29 12 -38 -2 -10 -15 -12
-14 -30 2 -13 11 -36 17 -70 17 -45 0 -57 -5 -109 -45 -121 -94 -264 -298
-393 -558 -124 -253 -150 -357 -97 -392 70 -46 232 82 272 214 23 79 66 151
136 228 21 24 38 41 38 38 0 -2 16 7 36 20 20 14 53 29 73 35 26 7 39 17 47
38 8 21 20 31 44 35 44 9 51 2 34 -33 -23 -44 -20 -167 3 -199 37 -49 110 -44
160 10 15 17 38 41 50 52 12 11 20 24 17 29 -3 5 -2 7 3 6 4 -2 24 9 43 24 93
71 180 62 180 -19 0 -24 -8 -42 -27 -61 l-28 -27 -3 37 c-4 45 -33 70 -71 61
-80 -18 -151 -134 -159 -258 -4 -63 -2 -79 13 -95 55 -61 196 14 341 183 53
62 74 79 74 60 0 -5 -30 -43 -68 -86 -125 -144 -237 -217 -332 -217 -62 0 -85
11 -106 51 -19 38 -12 94 22 162 21 43 22 46 4 37 -46 -25 -146 -3 -168 36 -8
14 -15 7 -36 -37 -86 -169 -213 -279 -291 -249 -15 6 -29 19 -32 30 -5 17 -15
11 -71 -47 -36 -38 -65 -70 -64 -73 0 -3 -7 -6 -16 -7 -9 -1 -34 -6 -55 -11
-50 -13 -102 2 -124 35 -25 37 -20 123 10 207 14 37 22 64 18 60 -131 -158
-174 -194 -227 -194 -39 0 -47 10 -46 61 1 72 104 232 204 315 46 40 125 80
173 90 23 4 39 20 68 64 69 105 198 274 250 328 94 96 219 156 280 133 15 -6
28 -18 29 -28 1 -10 4 11 7 47 4 48 10 65 21 65 8 0 17 -14 21 -34 10 -49 39
-83 92 -110 36 -17 56 -22 83 -17 53 10 94 52 101 104 5 40 3 45 -34 81 -22
21 -74 56 -114 79 -128 71 -164 116 -157 197 6 66 30 100 93 131 63 30 142 32
203 4z m-881 -13 c-2 -7 -21 -14 -43 -17 -21 -3 -39 -9 -39 -15 0 -12 158
-264 165 -264 13 -1 172 249 167 262 -3 8 -22 17 -41 21 -21 4 -36 13 -36 21
0 11 22 13 108 11 85 -2 107 -5 107 -17 0 -7 -9 -15 -20 -17 -40 -7 -144 -129
-229 -269 -37 -61 -38 -62 -35 -155 4 -128 3 -126 60 -134 32 -4 49 -11 49
-20 0 -11 -30 -14 -150 -14 -127 0 -150 2 -150 15 0 8 8 15 18 15 9 0 34 5 55
11 l37 10 0 97 0 97 -73 109 c-39 60 -76 116 -82 125 -39 63 -73 102 -95 107
-43 10 -50 13 -50 23 0 13 45 17 173 13 78 -2 107 -7 104 -15z"/>
<path d="M998 2313 c-21 -24 -41 -64 -35 -70 12 -11 66 29 75 57 10 26 9 30
-7 30 -10 0 -25 -8 -33 -17z"/>
<path d="M1697 745 c-80 -84 -157 -241 -157 -320 0 -31 3 -35 27 -35 33 0 115
81 157 155 51 91 66 139 59 194 -8 66 -27 67 -86 6z"/>
<path d="M1190 762 c-48 -26 -124 -122 -171 -217 -68 -140 -54 -169 40 -80 63
60 136 160 189 258 l31 57 -27 0 c-15 0 -43 -8 -62 -18z"/>
<path d="M1049 2853 c-55 -50 -116 -138 -174 -253 -26 -52 -52 -101 -58 -108
-49 -62 125 59 220 154 85 84 122 145 123 200 0 57 -52 60 -111 7z"/>
<path d="M123 1773 c-11 -70 -6 -337 9 -418 11 -58 16 -70 34 -73 11 -2 25 3
31 10 6 7 16 118 23 246 15 270 12 282 -51 282 -37 0 -38 -1 -46 -47z"/>
</g>
</svg>
